<svg width="53" height="53" viewBox="0 0 53 53" fill="none" xmlns="http://www.w3.org/2000/svg">
<path d="M25.6697 0.737108C26.0659 0.146828 26.9341 0.146827 27.3303 0.737107L32.583 8.56316C32.8254 8.92428 33.2733 9.08733 33.6911 8.96649L42.7454 6.34774C43.4283 6.15022 44.0935 6.70833 44.0175 7.41518L43.0108 16.7866C42.9644 17.2191 43.2027 17.6319 43.6004 17.8079L52.2197 21.6218C52.8698 21.9095 53.0206 22.7645 52.5081 23.2572L45.713 29.789C45.3995 30.0904 45.3167 30.5599 45.5083 30.9504L49.6595 39.4124C49.9726 40.0506 49.5385 40.8026 48.8292 40.8505L39.4253 41.4864C38.9914 41.5158 38.6262 41.8222 38.5219 42.2445L36.2627 51.3951C36.0923 52.0852 35.2764 52.3822 34.7022 51.963L27.0896 46.4055C26.7384 46.149 26.2616 46.149 25.9104 46.4055L18.2978 51.963C17.7236 52.3822 16.9077 52.0852 16.7373 51.3951L14.4781 42.2445C14.3738 41.8222 14.0086 41.5158 13.5747 41.4864L4.17083 40.8505C3.46154 40.8026 3.0274 40.0506 3.34051 39.4124L7.49173 30.9504C7.68329 30.5599 7.6005 30.0904 7.28696 29.789L0.491919 23.2572C-0.0205969 22.7645 0.130175 21.9095 0.780284 21.6218L9.39955 17.8079C9.79727 17.6319 10.0356 17.2191 9.98919 16.7866L8.98248 7.41518C8.90655 6.70834 9.57168 6.15022 10.2546 6.34774L19.3089 8.96649C19.7267 9.08733 20.1746 8.92428 20.417 8.56316L25.6697 0.737108Z" fill="white"/>
</svg>
