<svg width="50" height="38" viewBox="0 0 50 38" fill="none" xmlns="http://www.w3.org/2000/svg">
<path d="M16.875 0C7.125 0 0 10.7164 0 23.2804C0 33.1961 5 38 10.875 38C16.9375 38 21.375 33.2577 21.375 27.7147C21.375 21.8639 16.375 18.846 12.5 18.846C11.6875 17.4911 11.5 16.5673 11.5 14.4733C11.5 6.09724 18.375 2.70989 22.3125 2.70989C22.3125 1.84765 20.375 0 16.875 0ZM44.5625 0C34.8125 0 27.6875 10.7164 27.6875 23.2804C27.6875 33.1961 32.6875 38 38.5625 38C44.625 38 49.0625 33.2577 49.0625 27.7147C49.0625 21.8639 44.0625 18.846 40.1875 18.846C39.375 17.4911 39.1875 16.5673 39.1875 14.4733C39.1875 6.09724 46.0625 2.70989 50 2.70989C50 1.84765 48.0625 0 44.5625 0Z" fill="white" fill-opacity="0.2"/>
</svg>
